<svg xmlns="http://www.w3.org/2000/svg" viewBox="0 0 24 24" fill="none" stroke="#000000" stroke-linecap="round" stroke-linejoin="round" id="Michelin-Star--Streamline-Tabler" height="24" width="24">
  <desc>
    Michelin Star Streamline Icon: https://streamlinehq.com
  </desc>
  <path d="M14.792 17.063c0 0.337 0.057 0.618 0.057 0.9 0 1.8 -1.238 3.037 -2.982 3.037 -1.8 0 -2.98 -1.238 -2.98 -3.206v-0.731c-0.957 0.675 -1.576 0.9 -2.42 0.9 -1.518 0 -2.925 -1.463 -2.925 -3.094 0 -1.181 0.844 -2.194 2.082 -2.756l0.28 -0.113c-1.574 -0.787 -2.362 -1.688 -2.362 -2.925 0 -1.687 1.294 -3.094 2.925 -3.094 0.675 0 1.52 0.338 2.138 0.788l0.281 0.112c0 -0.337 -0.056 -0.619 -0.056 -0.844C8.83 4.237 10.067 3 11.81 3c1.8 0 2.981 1.237 2.981 3.206V6.6l-0.056 0.281c0.956 -0.675 1.575 -0.9 2.419 -0.9 1.519 0 2.925 1.463 2.925 3.094 0 1.181 -0.844 2.194 -2.081 2.756l-0.282 0.169c1.575 0.787 2.363 1.688 2.363 2.925 0 1.688 -1.294 3.094 -2.925 3.094 -0.675 0 -1.575 -0.281 -2.138 -0.788l-0.225 -0.169z" stroke-width="2"></path>
</svg>