<svg width="19" height="18" viewBox="0 0 19 18" fill="none" xmlns="http://www.w3.org/2000/svg">
<path d="M14 15C14.5304 15 15.0391 15.2107 15.4142 15.5858C15.7893 15.9609 16 16.4696 16 17C16 16.4696 16.2107 15.9609 16.5858 15.5858C16.9609 15.2107 17.4696 15 18 15C17.4696 15 16.9609 14.7893 16.5858 14.4142C16.2107 14.0391 16 13.5304 16 13C16 13.5304 15.7893 14.0391 15.4142 14.4142C15.0391 14.7893 14.5304 15 14 15ZM14 3C14.5304 3 15.0391 3.21071 15.4142 3.58579C15.7893 3.96086 16 4.46957 16 5C16 4.46957 16.2107 3.96086 16.5858 3.58579C16.9609 3.21071 17.4696 3 18 3C17.4696 3 16.9609 2.78929 16.5858 2.41421C16.2107 2.03914 16 1.53043 16 1C16 1.53043 15.7893 2.03914 15.4142 2.41421C15.0391 2.78929 14.5304 3 14 3ZM7 15C7 13.4087 7.63214 11.8826 8.75736 10.7574C9.88258 9.63214 11.4087 9 13 9C11.4087 9 9.88258 8.36786 8.75736 7.24264C7.63214 6.11742 7 4.5913 7 3C7 4.5913 6.36786 6.11742 5.24264 7.24264C4.11742 8.36786 2.5913 9 1 9C2.5913 9 4.11742 9.63214 5.24264 10.7574C6.36786 11.8826 7 13.4087 7 15Z" stroke="black" stroke-width="2" stroke-linecap="round" stroke-linejoin="round"/>
</svg>
