<svg width="636" height="407" viewBox="0 0 636 407" fill="none" xmlns="http://www.w3.org/2000/svg">
<g clip-path="url(#clip0_813_3423)">
<ellipse cx="318" cy="390.5" rx="318" ry="124.5" fill="url(#paint0_linear_813_3423)"/>
</g>
<rect width="40" height="15" rx="7.5" transform="matrix(-1 0 0 1 169 182)" fill="#D4EAEB"/>
<rect width="52" height="15" rx="7.5" transform="matrix(-1 0 0 1 359 206)" fill="#D4EAEB"/>
<rect width="83" height="15" rx="7.5" transform="matrix(-1 0 0 1 410 194)" fill="#D4EAEB"/>
<rect width="40" height="15" rx="7.5" transform="matrix(-1 0 0 1 482 182)" fill="#D4EAEB"/>
<g opacity="0.35">
<path d="M499.641 293.107L500.2 271.286H501.319L501.577 276.321C508.673 276.031 510.608 274.417 511.391 269.607H511.95C511.653 276.492 508.699 277.648 501.664 278L502.438 293.107H499.641Z" fill="url(#paint1_linear_813_3423)"/>
<path d="M523.7 250.583C523.7 270.167 513.429 273.524 500.76 273.524C488.09 273.524 473.343 265.69 477.819 250.583C482.295 235.476 493.486 231 500.76 231C513.429 231 523.7 237.914 523.7 250.583Z" fill="url(#paint2_linear_813_3423)"/>
<path d="M387.69 292.5L388.25 270.679H389.369L389.914 281.714C397.009 281.424 398.657 273.81 399.44 269H400C399.703 275.885 397.036 283.041 390 283.393L390.488 292.5H387.69Z" fill="url(#paint3_linear_813_3423)"/>
<path d="M406.727 235.599C397.37 227.155 380.641 228.082 374.5 234.5C368.944 240.041 370.5 241.001 365.204 246.973C359.418 253.501 356.433 266.682 369.591 270.599C377.203 272.865 383.8 273.369 389.295 272.764C391.147 272.933 393.095 273 395.106 273C407.314 273 421.21 268.632 420.5 256.816C420.182 251.529 416.468 248.208 411.832 246.151C411.286 241.796 409.436 238.045 406.727 235.599Z" fill="url(#paint4_linear_813_3423)"/>
<path d="M335.31 295.107L334.75 273.286H333.631L333.373 278.321L333.287 280L332.512 295.107H335.31Z" fill="url(#paint5_linear_813_3423)"/>
<path d="M355.7 252.583C355.7 272.167 345.429 275.524 332.76 275.524C320.09 275.524 305.343 267.69 309.819 252.583C314.295 237.476 325.486 233 332.76 233C345.429 233 355.7 239.914 355.7 252.583Z" fill="url(#paint6_linear_813_3423)"/>
<path d="M447.641 302.107L448.2 280.286H449.319L449.577 285.321L449.664 287L450.438 302.107H447.641Z" fill="url(#paint7_linear_813_3423)"/>
<path d="M469.5 259.583C473.609 278.731 461.429 282.524 448.76 282.524C436.09 282.524 421.343 274.69 425.819 259.583C430.295 244.476 437.227 232.5 444.5 232.5C457.17 232.5 466.8 247 469.5 259.583Z" fill="url(#paint8_linear_813_3423)"/>
</g>
<g opacity="0.7">
<path d="M423.641 299.107L424.2 277.286H425.319L425.577 282.321L425.664 284L426.438 299.107H423.641Z" fill="url(#paint9_linear_813_3423)"/>
<path d="M445.5 256.583C449.609 275.731 437.429 279.524 424.76 279.524C412.09 279.524 397.343 271.69 401.819 256.583C406.295 241.476 413.227 229.5 420.5 229.5C433.17 229.5 442.8 244 445.5 256.583Z" fill="url(#paint10_linear_813_3423)"/>
<path d="M473.641 299.107L474.2 277.286H475.319L475.577 282.321C482.673 282.031 484.608 280.417 485.391 275.607H485.95C485.653 282.492 482.699 283.648 475.664 284L476.438 299.107H473.641Z" fill="url(#paint11_linear_813_3423)"/>
<path d="M497.7 256.583C497.7 276.167 487.429 279.524 474.76 279.524C462.09 279.524 447.343 271.69 451.819 256.583C456.295 241.476 467.486 237 474.76 237C487.429 237 497.7 243.914 497.7 256.583Z" fill="url(#paint12_linear_813_3423)"/>
<path d="M367.31 297.107L366.75 275.286H365.631L365.086 286.321C357.991 286.031 356.343 278.417 355.56 273.607H355C355.297 280.492 357.964 287.648 365 288L364.512 297.107H367.31Z" fill="url(#paint13_linear_813_3423)"/>
<path d="M348.273 240.6C357.63 232.155 374.359 233.082 380.5 239.5C386.056 245.042 384.5 246.001 389.796 251.974C395.582 258.501 398.567 271.682 385.409 275.6C377.797 277.865 371.2 278.369 365.705 277.764C363.853 277.933 361.905 278 359.894 278C347.686 278 333.79 273.632 334.5 261.816C334.818 256.529 338.532 253.208 343.168 251.151C343.714 246.796 345.564 243.045 348.273 240.6Z" fill="url(#paint14_linear_813_3423)"/>
<path d="M309.31 303.107L308.75 281.286H307.631L307.373 286.321C300.278 286.031 298.343 284.417 297.56 279.607H297C297.297 286.492 300.251 287.648 307.287 288L306.512 303.107H309.31Z" fill="url(#paint15_linear_813_3423)"/>
<path d="M329.7 260.583C329.7 280.167 319.429 283.524 306.76 283.524C294.09 283.524 279.343 275.69 283.819 260.583C288.295 245.476 299.486 241 306.76 241C319.429 241 329.7 247.914 329.7 260.583Z" fill="url(#paint16_linear_813_3423)"/>
</g>
<path d="M171.843 316.375C130.017 303.892 121.652 255.585 157.9 241.087C185.783 229.934 181.136 222.502 198.796 204.842C218.314 184.391 260.139 177.932 289.881 204.842C309.4 222.502 314.892 261.538 289.881 295.928C275.01 316.375 234.115 334.96 171.843 316.375Z" fill="url(#paint17_linear_813_3423)"/>
<path d="M248.056 380.503H228.54C223.939 364.736 220.998 342.023 222.437 318.231C197.31 311.759 175.559 285.7 173.7 254.099H176.489C180.206 274.547 193.586 301.487 223.124 309.866C223.868 302.723 225.03 295.546 226.681 288.489H233.185C232.667 343.887 238.808 355.155 248.056 380.503Z" fill="url(#paint18_linear_813_3423)"/>
<mask id="mask0_813_3423" style="mask-type:alpha" maskUnits="userSpaceOnUse" x="173" y="254" width="76" height="127">
<path d="M248.056 380.503H228.54C223.939 364.736 220.998 342.023 222.437 318.231C197.31 311.759 175.559 285.7 173.7 254.099H176.489C180.206 274.547 193.586 301.487 223.124 309.866C223.868 302.723 225.03 295.546 226.681 288.489H233.185C232.667 343.887 238.808 355.155 248.056 380.503Z" fill="url(#paint19_linear_813_3423)"/>
</mask>
<g mask="url(#mask0_813_3423)">
<ellipse cx="234.804" cy="363.464" rx="55.4464" ry="21.2143" fill="url(#paint20_linear_813_3423)"/>
</g>
<path d="M198.796 204.843C218.315 184.391 260.14 177.933 289.882 204.843C309.4 222.502 314.892 261.539 289.882 295.928C288.068 298.421 285.866 300.884 283.287 303.258C273.135 308.612 259.431 308.795 246.198 306.148C236.904 304.289 222.033 291.279 205.302 267.112C196.938 255.029 177.419 250.543 162.548 258.747C145.456 268.177 141.821 287.869 148.795 303.278C128.717 284.036 129.794 252.953 157.059 241.432L160.421 240.053C185.515 229.46 181.689 221.95 198.796 204.843Z" fill="url(#paint21_linear_813_3423)"/>
<defs>
<linearGradient id="paint0_linear_813_3423" x1="318" y1="266" x2="318" y2="515" gradientUnits="userSpaceOnUse">
<stop stop-color="#B9F789"/>
<stop offset="0.355769" stop-color="#3B7726"/>
<stop offset="0.663462" stop-color="#154212"/>
</linearGradient>
<linearGradient id="paint1_linear_813_3423" x1="505.795" y1="269.607" x2="505.795" y2="293.107" gradientUnits="userSpaceOnUse">
<stop stop-color="#753F01"/>
<stop offset="0.769231" stop-color="#622904"/>
<stop offset="1" stop-color="#A5E87A"/>
</linearGradient>
<linearGradient id="paint2_linear_813_3423" x1="500.35" y1="231" x2="513.07" y2="272.405" gradientUnits="userSpaceOnUse">
<stop stop-color="#CBF282"/>
<stop offset="1" stop-color="#25A11F"/>
</linearGradient>
<linearGradient id="paint3_linear_813_3423" x1="393.845" y1="269" x2="393.845" y2="292.5" gradientUnits="userSpaceOnUse">
<stop stop-color="#753F01"/>
<stop offset="0.77" stop-color="#622904"/>
<stop offset="1" stop-color="#8BC865"/>
</linearGradient>
<linearGradient id="paint4_linear_813_3423" x1="375.291" y1="242.791" x2="416.291" y2="262.209" gradientUnits="userSpaceOnUse">
<stop stop-color="#C6F080"/>
<stop offset="1" stop-color="#31A626"/>
</linearGradient>
<linearGradient id="paint5_linear_813_3423" x1="329.155" y1="271.607" x2="329" y2="295" gradientUnits="userSpaceOnUse">
<stop stop-color="#753F01"/>
<stop offset="0.768346" stop-color="#622904"/>
<stop offset="1" stop-color="#8BC865"/>
</linearGradient>
<linearGradient id="paint6_linear_813_3423" x1="332.35" y1="233" x2="345.07" y2="274.405" gradientUnits="userSpaceOnUse">
<stop stop-color="#CBF282"/>
<stop offset="1" stop-color="#25A11F"/>
</linearGradient>
<linearGradient id="paint7_linear_813_3423" x1="453.795" y1="278.607" x2="453.795" y2="302.107" gradientUnits="userSpaceOnUse">
<stop stop-color="#753F01"/>
<stop offset="0.77" stop-color="#622904"/>
<stop offset="1" stop-color="#8BC865"/>
</linearGradient>
<linearGradient id="paint8_linear_813_3423" x1="448.35" y1="240" x2="461.07" y2="281.405" gradientUnits="userSpaceOnUse">
<stop stop-color="#CBF282"/>
<stop offset="1" stop-color="#25A11F"/>
</linearGradient>
<linearGradient id="paint9_linear_813_3423" x1="429.795" y1="275.607" x2="429.795" y2="299.107" gradientUnits="userSpaceOnUse">
<stop stop-color="#753F01"/>
<stop offset="0.77" stop-color="#622904"/>
<stop offset="1" stop-color="#8BC865"/>
</linearGradient>
<linearGradient id="paint10_linear_813_3423" x1="424.35" y1="237" x2="437.07" y2="278.405" gradientUnits="userSpaceOnUse">
<stop stop-color="#CBF282"/>
<stop offset="1" stop-color="#154212"/>
</linearGradient>
<linearGradient id="paint11_linear_813_3423" x1="479.795" y1="275.607" x2="479.795" y2="299.107" gradientUnits="userSpaceOnUse">
<stop stop-color="#753F01"/>
<stop offset="0.769231" stop-color="#622904"/>
<stop offset="1" stop-color="#8BC865"/>
</linearGradient>
<linearGradient id="paint12_linear_813_3423" x1="474.35" y1="237" x2="487.07" y2="278.405" gradientUnits="userSpaceOnUse">
<stop stop-color="#CBF282"/>
<stop offset="1" stop-color="#154212"/>
</linearGradient>
<linearGradient id="paint13_linear_813_3423" x1="361.155" y1="273.607" x2="361.155" y2="297.107" gradientUnits="userSpaceOnUse">
<stop stop-color="#753F01"/>
<stop offset="0.77" stop-color="#622904"/>
<stop offset="1" stop-color="#8BC865"/>
</linearGradient>
<linearGradient id="paint14_linear_813_3423" x1="349.5" y1="237" x2="368.918" y2="278" gradientUnits="userSpaceOnUse">
<stop stop-color="#C6F080"/>
<stop offset="1" stop-color="#154212"/>
</linearGradient>
<linearGradient id="paint15_linear_813_3423" x1="303.155" y1="279.607" x2="303" y2="303" gradientUnits="userSpaceOnUse">
<stop stop-color="#753F01"/>
<stop offset="0.768346" stop-color="#622904"/>
<stop offset="1" stop-color="#8BC865"/>
</linearGradient>
<linearGradient id="paint16_linear_813_3423" x1="306.35" y1="241" x2="319.07" y2="282.405" gradientUnits="userSpaceOnUse">
<stop stop-color="#CBF282"/>
<stop offset="1" stop-color="#154212"/>
</linearGradient>
<linearGradient id="paint17_linear_813_3423" x1="220.821" y1="187" x2="220.821" y2="324.027" gradientUnits="userSpaceOnUse">
<stop stop-color="#021401"/>
<stop offset="1" stop-color="#154212"/>
</linearGradient>
<linearGradient id="paint18_linear_813_3423" x1="210.878" y1="254.099" x2="210.878" y2="380.503" gradientUnits="userSpaceOnUse">
<stop stop-color="#794322"/>
<stop offset="1" stop-color="#6D4024"/>
</linearGradient>
<linearGradient id="paint19_linear_813_3423" x1="210.878" y1="254.099" x2="210.878" y2="380.503" gradientUnits="userSpaceOnUse">
<stop stop-color="#8B3B0A"/>
<stop offset="1" stop-color="#552304"/>
</linearGradient>
<linearGradient id="paint20_linear_813_3423" x1="235.506" y1="342.25" x2="235.506" y2="380.771" gradientUnits="userSpaceOnUse">
<stop stop-color="#55BC4E" stop-opacity="0"/>
<stop offset="1" stop-color="#2F6620"/>
</linearGradient>
<linearGradient id="paint21_linear_813_3423" x1="262.768" y1="187" x2="220.821" y2="307.816" gradientUnits="userSpaceOnUse">
<stop stop-color="#BAF96D"/>
<stop offset="1" stop-color="#054C00"/>
</linearGradient>
<clipPath id="clip0_813_3423">
<rect width="636" height="141" fill="white" transform="translate(0 266)"/>
</clipPath>
</defs>
</svg>
